<svg xmlns="http://www.w3.org/2000/svg" width="1200" height="630" viewBox="0 0 1200 630">
  <rect width="1200" height="630" fill="#0A0B0D"/>
  <!-- Grid lines -->
  <g stroke="#1a1b1e" stroke-width="1" opacity="0.6">
    <line x1="0" y1="105" x2="1200" y2="105"/>
    <line x1="0" y1="210" x2="1200" y2="210"/>
    <line x1="0" y1="315" x2="1200" y2="315"/>
    <line x1="0" y1="420" x2="1200" y2="420"/>
    <line x1="0" y1="525" x2="1200" y2="525"/>
    <line x1="120" y1="0" x2="120" y2="630"/>
    <line x1="240" y1="0" x2="240" y2="630"/>
    <line x1="360" y1="0" x2="360" y2="630"/>
    <line x1="480" y1="0" x2="480" y2="630"/>
    <line x1="600" y1="0" x2="600" y2="630"/>
    <line x1="720" y1="0" x2="720" y2="630"/>
    <line x1="840" y1="0" x2="840" y2="630"/>
    <line x1="960" y1="0" x2="960" y2="630"/>
    <line x1="1080" y1="0" x2="1080" y2="630"/>
  </g>
  <!-- Accent bar -->
  <rect x="80" y="260" width="4" height="110" fill="#E63946"/>
  <!-- Name -->
  <text x="108" y="310" font-family="system-ui,-apple-system,sans-serif" font-weight="800" font-size="96" fill="#ffffff" letter-spacing="-2">Luc Beck</text>
  <!-- Tagline -->
  <text x="108" y="365" font-family="ui-monospace,monospace" font-size="18" fill="#6b7280" letter-spacing="4">ENGINEER · RESEARCHER · BUILDER</text>
  <!-- Penn line -->
  <text x="108" y="420" font-family="ui-monospace,monospace" font-size="14" fill="#E63946" letter-spacing="6" opacity="0.8">UNIVERSITY OF PENNSYLVANIA</text>
  <!-- Corner mark -->
  <text x="1120" y="600" font-family="ui-monospace,monospace" font-size="12" fill="#E63946" text-anchor="end" letter-spacing="2" opacity="0.6">lucbeck.com</text>
</svg>
